<svg xmlns="http://www.w3.org/2000/svg" width="91.447" height="82.303" viewBox="0 0 91.447 82.303">
  <g id="camera" opacity="0.65">
    <path id="Path_1029" data-name="Path 1029" d="M42.463,27.832A14.632,14.632,0,1,1,27.832,13.2,14.632,14.632,0,0,1,42.463,27.832Z" transform="translate(17.892 17.892)"/>
    <path id="Path_1030" data-name="Path 1030" d="M35.007,3l-8.367,9.145H12.145A9.172,9.172,0,0,0,3,21.289V76.158A9.172,9.172,0,0,0,12.145,85.3H85.3a9.172,9.172,0,0,0,9.145-9.145V21.289A9.172,9.172,0,0,0,85.3,12.145H70.808L62.441,3ZM48.724,71.585A22.862,22.862,0,1,1,71.585,48.724,22.87,22.87,0,0,1,48.724,71.585Z" transform="translate(-3 -3)"/>
  </g>
</svg>
