<svg xmlns="http://www.w3.org/2000/svg" xmlns:xlink="http://www.w3.org/1999/xlink" width="24.753" height="22.219" viewBox="0 0 24.753 22.219">
  <defs>
    <linearGradient id="linear-gradient" x1="0.5" x2="0.5" y2="1" gradientUnits="objectBoundingBox">
      <stop offset="0" stop-color="#d4af37"/>
      <stop offset="1" stop-color="#ffe388"/>
    </linearGradient>
  </defs>
  <g id="cash_money" transform="translate(-182.475 -20.391)">
    <path id="Icon_awesome-money-bill-wave-alt" data-name="Icon awesome-money-bill-wave-alt" d="M19.829,2.967a9.453,9.453,0,0,0-3.716-.717c-3.932,0-7.863,1.99-11.8,1.99A9.686,9.686,0,0,1,1.36,3.8a1.091,1.091,0,0,0-.33-.052A1.016,1.016,0,0,0,0,4.766V14.894a1.015,1.015,0,0,0,.6.94,9.448,9.448,0,0,0,3.716.717c3.932,0,7.864-1.99,11.8-1.99A9.686,9.686,0,0,1,19.071,15a1.092,1.092,0,0,0,.33.052,1.016,1.016,0,0,0,1.03-1.015V3.908A1.016,1.016,0,0,0,19.829,2.967Zm-9.614,9.5A2.844,2.844,0,0,1,7.661,9.4a2.844,2.844,0,0,1,2.554-3.065A2.844,2.844,0,0,1,12.769,9.4,2.844,2.844,0,0,1,10.215,12.465Z" transform="matrix(0.883, -0.469, 0.469, 0.883, 181.419, 27.996)" opacity="0.888" fill="url(#linear-gradient)"/>
    <ellipse id="Ellipse_338" data-name="Ellipse 338" cx="4.5" cy="5" rx="4.5" ry="5" transform="translate(190.236 27)" fill="#eccf71"/>
    <path id="Icon_metro-money" data-name="Icon metro-money" d="M13.575,10.585C12.38,10.275,12,9.956,12,9.456c0-.574.529-.976,1.421-.976.937,0,1.284.447,1.316,1.105H15.9a2.1,2.1,0,0,0-1.69-2.006V6.427H12.627V7.564a2.054,2.054,0,0,0-1.842,1.9c0,1.216,1.008,1.821,2.474,2.174,1.319.316,1.579.776,1.579,1.271,0,.361-.255.94-1.421.94-1.084,0-1.513-.487-1.569-1.105H10.688a2.21,2.21,0,0,0,1.94,2.016V15.9h1.579V14.77c1.024-.2,1.842-.79,1.842-1.871C16.049,11.409,14.77,10.9,13.575,10.585Z" transform="matrix(0.883, -0.469, 0.469, 0.883, 177.808, 27.54)" fill="#fff"/>
  </g>
</svg>
