<svg xmlns="http://www.w3.org/2000/svg" xmlns:xlink="http://www.w3.org/1999/xlink" width="52" height="51" viewBox="0 0 52 51">
  <defs>
    <filter id="Ellipse_340" x="0" y="0" width="52" height="51" filterUnits="userSpaceOnUse">
      <feOffset dy="3" input="SourceAlpha"/>
      <feGaussianBlur stdDeviation="3" result="blur"/>
      <feFlood flood-opacity="0.161"/>
      <feComposite operator="in" in2="blur"/>
      <feComposite in="SourceGraphic"/>
    </filter>
  </defs>
  <g id="done_check" transform="translate(-1555 -598)">
    <g transform="matrix(1, 0, 0, 1, 1555, 598)" filter="url(#Ellipse_340)">
      <g id="Ellipse_340-2" data-name="Ellipse 340" transform="translate(9 6)" fill="#f5f5f5" stroke="#707070" stroke-width="0.1">
        <ellipse cx="17" cy="16.5" rx="17" ry="16.5" stroke="none"/>
        <ellipse cx="17" cy="16.5" rx="16.95" ry="16.45" fill="none"/>
      </g>
    </g>
    <path id="Icon_awesome-check" data-name="Icon awesome-check" d="M8.184,22.193.353,14.362a1.2,1.2,0,0,1,0-1.7l1.7-1.7a1.2,1.2,0,0,1,1.7,0L9.036,16.23l11.3-11.3a1.2,1.2,0,0,1,1.7,0l1.7,1.7a1.2,1.2,0,0,1,0,1.7L9.888,22.193A1.2,1.2,0,0,1,8.184,22.193Z" transform="translate(1569.285 606.667)" fill="#4aa223"/>
  </g>
</svg>
