<svg xmlns="http://www.w3.org/2000/svg" width="24.304" height="25.158" viewBox="0 0 24.304 25.158">
  <path id="edit" d="M16.987,4.091l3.806,4.433a.538.538,0,0,1,0,.678L11.578,19.936l-3.916.506a.9.9,0,0,1-.907-1.057l.435-4.561L16.4,4.091A.373.373,0,0,1,16.987,4.091Zm6.835-1.125L21.764.567a1.49,1.49,0,0,0-2.329,0l-1.494,1.74a.538.538,0,0,0,0,.678l3.806,4.433a.373.373,0,0,0,.582,0l1.494-1.74A2.153,2.153,0,0,0,23.823,2.966ZM16.2,17.017v5H2.7V6.293h9.7a.484.484,0,0,0,.359-.172l1.688-1.966a.606.606,0,0,0-.359-1.008H2.025A2.212,2.212,0,0,0,0,5.507v17.3a2.212,2.212,0,0,0,2.025,2.359H16.878A2.212,2.212,0,0,0,18.9,22.806V15.051c0-.526-.544-.786-.865-.418L16.35,16.6A.659.659,0,0,0,16.2,17.017Z" transform="translate(0 -0.007)" fill="#707070"/>
</svg>
