<svg xmlns="http://www.w3.org/2000/svg" width="46.545" height="46.535" viewBox="0 0 46.545 46.535">
  <path id="instagram" d="M23.272,13.574A11.931,11.931,0,1,0,35.2,25.5,11.912,11.912,0,0,0,23.272,13.574Zm0,19.687A7.757,7.757,0,1,1,31.029,25.5a7.771,7.771,0,0,1-7.757,7.757Zm15.2-20.176A2.783,2.783,0,1,1,35.691,10.3,2.776,2.776,0,0,1,38.474,13.086Zm7.9,2.824c-.177-3.728-1.028-7.03-3.759-9.75S36.595,2.588,32.867,2.4c-3.842-.218-15.357-.218-19.2,0C9.95,2.578,6.648,3.429,3.917,6.15S.345,12.172.158,15.9c-.218,3.842-.218,15.357,0,19.2.177,3.728,1.028,7.03,3.759,9.75s6.023,3.572,9.75,3.759c3.842.218,15.357.218,19.2,0,3.728-.177,7.03-1.028,9.75-3.759s3.572-6.023,3.759-9.75c.218-3.842.218-15.347,0-19.189ZM41.413,39.222a7.853,7.853,0,0,1-4.423,4.423c-3.063,1.215-10.332.935-13.717.935s-10.664.27-13.717-.935a7.853,7.853,0,0,1-4.423-4.423C3.917,36.159,4.2,28.89,4.2,25.5s-.27-10.664.935-13.717A7.853,7.853,0,0,1,9.556,7.365C12.619,6.15,19.887,6.43,23.272,6.43s10.664-.27,13.717.935a7.853,7.853,0,0,1,4.423,4.423c1.215,3.063.935,10.332.935,13.717S42.628,36.169,41.413,39.222Z" transform="translate(0.005 -2.238)" fill="#707070" opacity="0.17"/>
</svg>
