<svg xmlns="http://www.w3.org/2000/svg" width="38.218" height="38.218" viewBox="0 0 38.218 38.218">
  <path id="link" d="M24.38,13.838a11.34,11.34,0,0,1,.027,16.018l-.027.028L19.364,34.9A11.346,11.346,0,0,1,3.318,18.855l2.77-2.77a1.193,1.193,0,0,1,2.037.792,13.754,13.754,0,0,0,.723,3.935,1.2,1.2,0,0,1-.282,1.24l-.977.977a5.374,5.374,0,1,0,7.552,7.649l5.016-5.015a5.373,5.373,0,0,0,0-7.6,5.591,5.591,0,0,0-.772-.64,1.2,1.2,0,0,1-.519-.941,2.973,2.973,0,0,1,.873-2.225l1.572-1.572a1.2,1.2,0,0,1,1.536-.129,11.382,11.382,0,0,1,1.532,1.284ZM34.9,3.318a11.359,11.359,0,0,0-16.046,0L13.838,8.334l-.027.028a11.348,11.348,0,0,0,1.559,17.3,1.2,1.2,0,0,0,1.536-.129l1.572-1.572a2.973,2.973,0,0,0,.873-2.225,1.2,1.2,0,0,0-.519-.941,5.592,5.592,0,0,1-.772-.64,5.373,5.373,0,0,1,0-7.6L23.077,7.54a5.374,5.374,0,1,1,7.552,7.649l-.977.977a1.2,1.2,0,0,0-.282,1.24,13.754,13.754,0,0,1,.723,3.935,1.193,1.193,0,0,0,2.037.792l2.77-2.77a11.358,11.358,0,0,0,0-16.046Z" transform="translate(0)" fill="#fff"/>
</svg>
