<svg xmlns="http://www.w3.org/2000/svg" width="85.988" height="35.292" viewBox="0 0 85.988 35.292">
  <path id="pay_2" d="M15.708,13.309a5.275,5.275,0,0,1-4.232,2,5.956,5.956,0,0,1,1.518-4.38A6.316,6.316,0,0,1,17.2,8.768a6.392,6.392,0,0,1-1.491,4.541m1.464,2.311c-2.338-.134-4.339,1.33-5.441,1.33-1.128,0-2.821-1.263-4.675-1.223A6.905,6.905,0,0,0,1.2,19.287C-1.327,23.627.541,30.035,2.986,33.568c1.2,1.746,2.62,3.668,4.5,3.6,1.787-.067,2.485-1.155,4.635-1.155s2.794,1.155,4.675,1.128c1.948-.04,3.171-1.746,4.366-3.493a15.187,15.187,0,0,0,1.948-4.017,6.347,6.347,0,0,1-3.8-5.763,6.462,6.462,0,0,1,3.077-5.414,6.64,6.64,0,0,0-5.213-2.835m13.488-4.863V36.94h4.071V27.993h5.629c5.145,0,8.746-3.533,8.746-8.638a8.212,8.212,0,0,0-8.612-8.6H30.661Zm4.071,3.426H39.42c3.533,0,5.548,1.881,5.548,5.186s-2.015,5.213-5.562,5.213H34.732Zm21.791,22.96A6.707,6.707,0,0,0,62.514,33.8h.081V36.94h3.762V23.909c0-3.775-3.023-6.22-7.671-6.22-4.312,0-7.51,2.472-7.631,5.857h3.668c.309-1.612,1.8-2.673,3.842-2.673,2.485,0,3.883,1.155,3.883,3.291v1.451l-5.078.309c-4.716.282-7.268,2.217-7.268,5.575C50.114,34.885,52.747,37.142,56.522,37.142Zm1.1-3.1c-2.163,0-3.547-1.048-3.547-2.633,0-1.652,1.33-2.606,3.869-2.754l4.514-.282v1.478c0,2.445-2.082,4.192-4.836,4.192ZM71.394,44.06c3.963,0,5.831-1.518,7.456-6.1l7.134-20.017H81.846L77.064,33.407h-.081L72.2,17.944H67.955l6.878,19.064-.376,1.155c-.618,1.961-1.626,2.727-3.426,2.727-.322,0-.94-.04-1.2-.067v3.144A14.082,14.082,0,0,0,71.394,44.06Z" transform="translate(0.004 -8.768)" fill="#979797"/>
</svg>
