<svg xmlns="http://www.w3.org/2000/svg" width="97.993" height="33.154" viewBox="0 0 97.993 33.154">
  <path id="pay_1" d="M22.917-1.641A17.637,17.637,0,0,1,14,.427q-5.913,0-9.323-3.273T1.265-11.86A12.585,12.585,0,0,1,4.99-21.277a13.574,13.574,0,0,1,9.912-3.64,20.134,20.134,0,0,1,6.87,1.077v5.178A13.655,13.655,0,0,0,14.834-20.3a7.449,7.449,0,0,0-5.6,2.23,8.193,8.193,0,0,0-2.162,5.956,8.217,8.217,0,0,0,1.94,5.845A6.837,6.837,0,0,0,14.253-4.2,7.291,7.291,0,0,0,17.4-4.768V-9.553h-4.9v-4.409H22.917ZM35.5.427a9.407,9.407,0,0,1-6.879-2.452,8.891,8.891,0,0,1-2.5-6.656,8.891,8.891,0,0,1,2.6-6.793,9.815,9.815,0,0,1,7.024-2.452,9.294,9.294,0,0,1,6.836,2.452,8.717,8.717,0,0,1,2.478,6.486A9.253,9.253,0,0,1,42.494-2.1,9.512,9.512,0,0,1,35.5.427Zm.137-14.219a3.6,3.6,0,0,0-2.974,1.316A5.8,5.8,0,0,0,31.6-8.75q0,5.042,4.067,5.042,3.879,0,3.879-5.178Q39.546-13.792,35.632-13.792ZM52.363-9.263V0H49.492V-24.507h6.733a8.887,8.887,0,0,1,6.093,1.914,6.834,6.834,0,0,1,2.162,5.4,7.427,7.427,0,0,1-2.4,5.708,9.174,9.174,0,0,1-6.486,2.222Zm0-12.646V-11.86h3.008a6.725,6.725,0,0,0,4.537-1.359,4.81,4.81,0,0,0,1.564-3.837q0-4.854-5.742-4.854ZM80.049,0h-2.8V-2.734h-.068A5.868,5.868,0,0,1,71.794.41,5.753,5.753,0,0,1,67.7-.974a4.8,4.8,0,0,1-1.478-3.674q0-4.9,5.776-5.708l5.247-.735q0-4.46-3.606-4.46A8.615,8.615,0,0,0,67.932-13.4V-16.27a10.845,10.845,0,0,1,5.947-1.641q6.169,0,6.169,6.528Zm-2.8-8.853-4.221.581a6.853,6.853,0,0,0-2.939.966,2.785,2.785,0,0,0-.991,2.452,2.671,2.671,0,0,0,.914,2.094,3.533,3.533,0,0,0,2.435.812,4.5,4.5,0,0,0,3.444-1.461,5.221,5.221,0,0,0,1.359-3.7ZM99.258-17.5,91.208,2.8q-2.153,5.435-6.05,5.435a6.413,6.413,0,0,1-1.829-.222V5.5a5.2,5.2,0,0,0,1.658.308q2.119,0,3.179-2.529l1.4-3.315L82.732-17.5h3.11L90.576-4.033q.085.256.359,1.333h.1q.085-.41.342-1.3l4.973-13.5Z" transform="translate(-1.265 24.917)" fill="#979797"/>
</svg>
