<svg xmlns="http://www.w3.org/2000/svg" width="29.993" height="29.993" viewBox="0 0 29.993 29.993">
  <path id="plus" d="M27.851,14.033H18.21V4.392A2.143,2.143,0,0,0,16.068,2.25H13.925a2.143,2.143,0,0,0-2.142,2.142v9.641H2.142A2.143,2.143,0,0,0,0,16.175v2.142A2.143,2.143,0,0,0,2.142,20.46h9.641V30.1a2.143,2.143,0,0,0,2.142,2.142h2.142A2.143,2.143,0,0,0,18.21,30.1V20.46h9.641a2.143,2.143,0,0,0,2.142-2.142V16.175A2.143,2.143,0,0,0,27.851,14.033Z" transform="translate(0 -2.25)" fill="#fff"/>
</svg>
