<svg xmlns="http://www.w3.org/2000/svg" width="46.171" height="42.619" viewBox="0 0 46.171 42.619">
  <g id="qr" transform="translate(0 0)">
    <path id="Path_1282" data-name="Path 1282" d="M17.36,4.5H10.833a7.46,7.46,0,0,0-7.458,7.458v6.526a1.554,1.554,0,0,0,3.108,0V11.847a4.259,4.259,0,0,1,1.3-2.908,4.238,4.238,0,0,1,2.941-1.332H17.36a1.554,1.554,0,1,0,0-3.108Z" transform="translate(-3.375 -4.5)" fill="#fff"/>
    <path id="Path_1283" data-name="Path 1283" d="M30.972,4.5H24.335a1.554,1.554,0,0,0,0,3.108h6.637A4.238,4.238,0,0,1,33.913,8.94a4.259,4.259,0,0,1,1.3,2.908v6.637a1.554,1.554,0,0,0,3.108,0V11.847A7.356,7.356,0,0,0,30.972,4.5Z" transform="translate(7.851 -4.5)" fill="#fff"/>
    <path id="Path_1284" data-name="Path 1284" d="M17.36,34.087H10.722a4.238,4.238,0,0,1-2.941-1.332,4.259,4.259,0,0,1-1.3-2.908V23.21a1.554,1.554,0,1,0-3.108,0v6.637a7.356,7.356,0,0,0,7.347,7.347H17.36a1.554,1.554,0,1,0,0-3.108Z" transform="translate(-3.375 5.425)" fill="#fff"/>
    <path id="Path_1285" data-name="Path 1285" d="M36.766,21.656a1.558,1.558,0,0,0-1.554,1.554v6.637a4.518,4.518,0,0,1-4.24,4.24H24.335a1.554,1.554,0,0,0,0,3.108h6.526a7.467,7.467,0,0,0,7.458-7.458V23.21A1.558,1.558,0,0,0,36.766,21.656Z" transform="translate(7.851 5.425)" fill="#fff"/>
  </g>
</svg>
