<svg xmlns="http://www.w3.org/2000/svg" xmlns:xlink="http://www.w3.org/1999/xlink" width="109" height="120.891" viewBox="0 0 109 120.891">
  <defs>
    <linearGradient id="linear-gradient" x1="0.5" x2="0.5" y2="1" gradientUnits="objectBoundingBox">
      <stop offset="0" stop-color="#eaeaea"/>
      <stop offset="1" stop-color="#f5f5f5"/>
    </linearGradient>
  </defs>
  <g id="register" transform="translate(-349 -724)">
    <circle id="Ellipse_1289" data-name="Ellipse 1289" cx="50.5" cy="50.5" r="50.5" transform="translate(349 743.891)" opacity="0.409" fill="url(#linear-gradient)"/>
    <circle id="Ellipse_1290" data-name="Ellipse 1290" cx="44" cy="44" r="44" transform="translate(356 750.891)" fill="url(#linear-gradient)"/>
    <g id="Group_10361" data-name="Group 10361" transform="translate(370 782.513) rotate(-19)">
      <ellipse id="Ellipse_310" data-name="Ellipse 310" cx="22.63" cy="22.614" rx="22.63" ry="22.614" transform="translate(2.662 2.21)" fill="#c9a42b"/>
      <ellipse id="Ellipse_309" data-name="Ellipse 309" cx="22.63" cy="22.614" rx="22.63" ry="22.614" transform="translate(0 0)" fill="#d4af37"/>
      <g id="Icon_feather-dollar-sign" data-name="Icon feather-dollar-sign" transform="translate(23.032 12.078) rotate(28)">
        <path id="Path_1278" data-name="Path 1278" d="M0,0V19.06" transform="translate(4.355 0)" fill="none" stroke="#fff" stroke-linecap="round" stroke-linejoin="round" stroke-width="1"/>
        <path id="Path_1279" data-name="Path 1279" d="M7.983,0H2.54A2.849,2.849,0,0,0,0,3.079,2.849,2.849,0,0,0,2.54,6.158H6.169a2.849,2.849,0,0,1,2.54,3.079,2.849,2.849,0,0,1-2.54,3.079H0" transform="translate(0 3.372)" fill="none" stroke="#fff" stroke-linecap="round" stroke-linejoin="round" stroke-width="1"/>
      </g>
    </g>
    <text id="_" data-name="*" transform="translate(451 763)" fill="#8d8d8d" font-size="30" font-family="Cairo-Light, Cairo" font-weight="300"><tspan x="-6.285" y="0">*</tspan></text>
  </g>
</svg>
