<svg xmlns="http://www.w3.org/2000/svg" width="33.632" height="22.702" viewBox="0 0 33.632 22.702">
  <path id="sms" d="M.072,24.759V6.079q0-.032.1-.616l10.994,9.405L.2,25.408a2.749,2.749,0,0,1-.13-.649ZM1.531,4.165a1.4,1.4,0,0,1,.551-.1h29.61a1.836,1.836,0,0,1,.584.1L21.25,13.6,19.79,14.77,16.9,17.138,14.018,14.77,12.558,13.6Zm.032,22.508L12.623,16.068l4.281,3.47,4.281-3.47L32.244,26.673a1.557,1.557,0,0,1-.551.1H2.083a1.469,1.469,0,0,1-.519-.1ZM22.644,14.868,33.606,5.463a1.936,1.936,0,0,1,.1.616V24.759a2.486,2.486,0,0,1-.1.649Z" transform="translate(-0.072 -4.068)" fill="#707070" opacity="0.724"/>
</svg>
