<svg xmlns="http://www.w3.org/2000/svg" xmlns:xlink="http://www.w3.org/1999/xlink" width="331" height="349.939" viewBox="0 0 331 349.939">
  <defs>
    <filter id="Ellipse_326" x="0" y="11.376" width="331" height="338" filterUnits="userSpaceOnUse">
      <feOffset dy="3" input="SourceAlpha"/>
      <feGaussianBlur stdDeviation="3" result="blur"/>
      <feFlood flood-opacity="0.161"/>
      <feComposite operator="in" in2="blur"/>
      <feComposite in="SourceGraphic"/>
    </filter>
  </defs>
  <g id="success_pay" transform="translate(-790.656 -455.624)">
    <g transform="matrix(1, 0, 0, 1, 790.66, 455.62)" filter="url(#Ellipse_326)">
      <ellipse id="Ellipse_326-2" data-name="Ellipse 326" cx="156.5" cy="160" rx="156.5" ry="160" transform="translate(9 17.38)" fill="#d4af37" opacity="0.271"/>
    </g>
    <g id="Group_10360" data-name="Group 10360" transform="translate(794.566 483.438)">
      <path id="Path_193" data-name="Path 193" d="M117.551,15.557c103.96-49.323,131.98,27.575,89.615,105.66-49.38,97.854-50.71,8.58-89.615,80.421S0,222.642,0,171.257,19.891,69.661,117.551,15.557Z" transform="translate(318.864 198.96) rotate(147)" fill="#f5f5f5" opacity="0.4"/>
      <path id="Path_192" data-name="Path 192" d="M117.551,15.557c103.96-49.323,131.98,27.575,89.615,105.66-49.38,97.854-50.71,8.58-89.615,80.421S0,222.642,0,171.257,19.891,69.661,117.551,15.557Z" transform="matrix(0.978, 0.208, -0.208, 0.978, 73.494, 21.53)" fill="#f5f5f5" opacity="0.4"/>
      <path id="Path_191" data-name="Path 191" d="M117.551,15.557c103.96-49.323,131.98,27.575,89.615,105.66-49.38,97.854-50.71,8.58-89.615,80.421S0,222.642,0,171.257,19.891,69.661,117.551,15.557Z" transform="translate(123.603 1.153) rotate(31)" fill="#f5f5f5" opacity="0.7"/>
      <text id="_" data-name="*" transform="translate(15.595 86.654)" fill="#4aa223" font-size="54" font-family="Cairo-Light, Cairo" font-weight="300" opacity="0.338"><tspan x="-11.313" y="0">*</tspan></text>
      <text id="_2" data-name="*" transform="translate(247.354 12.186)" fill="#4aa223" font-size="31" font-family="Cairo-Light, Cairo" font-weight="300" opacity="0.338"><tspan x="-6.494" y="0">*</tspan></text>
      <text id="_3" data-name="*" transform="translate(61.072 282.596)" fill="#4aa223" font-size="31" font-family="Cairo-Light, Cairo" font-weight="300" opacity="0.338"><tspan x="-6.494" y="0">*</tspan></text>
      <text id="_4" data-name="*" transform="translate(309.445 199.652)" fill="#4aa223" font-size="40" font-family="Cairo-Light, Cairo" font-weight="300" opacity="0.338"><tspan x="-8.38" y="0">*</tspan></text>
      <g id="wallet-2" transform="translate(82.389 112.023)">
        <path id="Path_1261" data-name="Path 1261" d="M125.179,177.185H45.2a6.152,6.152,0,0,1,0-12.3h79.976v12.3Z" transform="translate(0 -125.918)" fill="#b2b2b2"/>
        <path id="Path_1262" data-name="Path 1262" d="M39.051,209.371v51.267A6.152,6.152,0,0,0,45.2,266.79h90.229V197.067H45.2a6.152,6.152,0,0,1-6.152-6.152Z" transform="translate(0 -145.8)" fill="#cdc7c7"/>
        <path id="Path_1266" data-name="Path 1266" d="M308.217,312.407h8.2a4.1,4.1,0,0,1,4.1,4.1v16.405a4.1,4.1,0,0,1-4.1,4.1H285.66a12.3,12.3,0,0,1,0-24.608Z" transform="translate(-178.937 -238.583)" fill="#b2b2b2"/>
        <path id="Path_1267" data-name="Path 1267" d="M65.085,216.949h4.1v69.723h-4.1Z" transform="translate(-19.882 -165.682)" fill="#eee"/>
        <circle id="Ellipse_296" data-name="Ellipse 296" cx="4.101" cy="4.101" r="4.101" transform="translate(102.622 82.027)" fill="#eee"/>
      </g>
      <g id="_33" data-name="33" transform="translate(163.674 116.923) rotate(-19)" opacity="0.255">
        <ellipse id="Ellipse_310" data-name="Ellipse 310" cx="16.366" cy="16.366" rx="16.366" ry="16.366" transform="translate(1.9 1.169)" fill="#c9a42b"/>
        <ellipse id="Ellipse_309" data-name="Ellipse 309" cx="16.366" cy="16.366" rx="16.366" ry="16.366" transform="translate(0 0)" fill="#d4af37"/>
        <g id="Icon_feather-dollar-sign" data-name="Icon feather-dollar-sign" transform="translate(16.242 9.775) rotate(28)">
          <path id="Path_1278" data-name="Path 1278" d="M0,0V11.994" transform="translate(3.271 0)" fill="none" stroke="#fff" stroke-linecap="round" stroke-linejoin="round" stroke-width="2"/>
          <path id="Path_1279" data-name="Path 1279" d="M6,0H1.908a1.908,1.908,0,1,0,0,3.816H4.634a1.908,1.908,0,1,1,0,3.816H0" transform="translate(0 2.181)" fill="none" stroke="#fff" stroke-linecap="round" stroke-linejoin="round" stroke-width="2"/>
        </g>
      </g>
      <g id="_22" data-name="22" transform="translate(135.766 90.65) rotate(-19)" opacity="0.255">
        <ellipse id="Ellipse_310-2" data-name="Ellipse 310" cx="16.366" cy="16.366" rx="16.366" ry="16.366" transform="translate(1.9 1.169)" fill="#c9a42b"/>
        <ellipse id="Ellipse_309-2" data-name="Ellipse 309" cx="16.366" cy="16.366" rx="16.366" ry="16.366" transform="translate(0 0)" fill="#d4af37"/>
        <g id="Icon_feather-dollar-sign-2" data-name="Icon feather-dollar-sign" transform="translate(16.242 9.775) rotate(28)">
          <path id="Path_1278-2" data-name="Path 1278" d="M0,0V11.994" transform="translate(3.271 0)" fill="none" stroke="#fff" stroke-linecap="round" stroke-linejoin="round" stroke-width="2"/>
          <path id="Path_1279-2" data-name="Path 1279" d="M6,0H1.908a1.908,1.908,0,1,0,0,3.816H4.634a1.908,1.908,0,1,1,0,3.816H0" transform="translate(0 2.181)" fill="none" stroke="#fff" stroke-linecap="round" stroke-linejoin="round" stroke-width="2"/>
        </g>
      </g>
      <g id="_11" data-name="11" transform="translate(131.491 135.848) rotate(-19)" opacity="0.255">
        <ellipse id="Ellipse_310-3" data-name="Ellipse 310" cx="16.366" cy="16.366" rx="16.366" ry="16.366" transform="translate(1.9 1.169)" fill="#c9a42b"/>
        <ellipse id="Ellipse_309-3" data-name="Ellipse 309" cx="16.366" cy="16.366" rx="16.366" ry="16.366" transform="translate(0 0)" fill="#d4af37"/>
        <g id="Icon_feather-dollar-sign-3" data-name="Icon feather-dollar-sign" transform="translate(16.242 9.775) rotate(28)">
          <path id="Path_1278-3" data-name="Path 1278" d="M0,0V11.994" transform="translate(3.271 0)" fill="none" stroke="#fff" stroke-linecap="round" stroke-linejoin="round" stroke-width="2"/>
          <path id="Path_1279-3" data-name="Path 1279" d="M6,0H1.908a1.908,1.908,0,1,0,0,3.816H4.634a1.908,1.908,0,1,1,0,3.816H0" transform="translate(0 2.181)" fill="none" stroke="#fff" stroke-linecap="round" stroke-linejoin="round" stroke-width="2"/>
        </g>
      </g>
      <g id="_3-2" data-name="3" transform="translate(169.96 102.75) rotate(-19)">
        <ellipse id="Ellipse_310-4" data-name="Ellipse 310" cx="17.898" cy="17.898" rx="17.898" ry="17.898" transform="translate(2.077 1.278)" fill="#c9a42b"/>
        <ellipse id="Ellipse_309-4" data-name="Ellipse 309" cx="17.898" cy="17.898" rx="17.898" ry="17.898" fill="#d4af37"/>
        <g id="Icon_feather-dollar-sign-4" data-name="Icon feather-dollar-sign" transform="translate(17.763 10.69) rotate(28)">
          <path id="Path_1278-4" data-name="Path 1278" d="M0,0V13.117" transform="translate(3.577 0)" fill="none" stroke="#fff" stroke-linecap="round" stroke-linejoin="round" stroke-width="2"/>
          <path id="Path_1279-4" data-name="Path 1279" d="M6.559,0H2.087a2.087,2.087,0,1,0,0,4.174H5.068a2.087,2.087,0,1,1,0,4.174H0" transform="translate(0 2.385)" fill="none" stroke="#fff" stroke-linecap="round" stroke-linejoin="round" stroke-width="2"/>
        </g>
      </g>
      <g id="_2-2" data-name="2" transform="translate(127.375 67.129) rotate(-19)">
        <ellipse id="Ellipse_310-5" data-name="Ellipse 310" cx="22.771" cy="22.771" rx="22.771" ry="22.771" transform="translate(2.643 1.626)" fill="#c9a42b"/>
        <ellipse id="Ellipse_309-5" data-name="Ellipse 309" cx="22.771" cy="22.771" rx="22.771" ry="22.771" fill="#d4af37"/>
        <g id="Icon_feather-dollar-sign-5" data-name="Icon feather-dollar-sign" transform="translate(22.599 13.6) rotate(28)">
          <path id="Path_1278-5" data-name="Path 1278" d="M0,0V16.688" transform="translate(4.551 0)" fill="none" stroke="#fff" stroke-linecap="round" stroke-linejoin="round" stroke-width="2"/>
          <path id="Path_1279-5" data-name="Path 1279" d="M8.344,0H2.655a2.655,2.655,0,1,0,0,5.31H6.448a2.655,2.655,0,1,1,0,5.31H0" transform="translate(0 3.034)" fill="none" stroke="#fff" stroke-linecap="round" stroke-linejoin="round" stroke-width="2"/>
        </g>
      </g>
      <g id="_1" data-name="1" transform="matrix(0.545, -0.839, 0.839, 0.545, 125.411, 147.002)">
        <ellipse id="Ellipse_310-6" data-name="Ellipse 310" cx="17.743" cy="18.373" rx="17.743" ry="18.373" transform="translate(2.643 1.626)" fill="#c9a42b"/>
        <ellipse id="Ellipse_309-6" data-name="Ellipse 309" cx="17.743" cy="18.373" rx="17.743" ry="18.373" fill="#d4af37"/>
        <g id="Icon_feather-dollar-sign-6" data-name="Icon feather-dollar-sign" transform="translate(18.004 9.352) rotate(28)">
          <path id="Path_1278-6" data-name="Path 1278" d="M0,0V16.688" transform="translate(4.551 0)" fill="none" stroke="#fff" stroke-linecap="round" stroke-linejoin="round" stroke-width="2"/>
          <path id="Path_1279-6" data-name="Path 1279" d="M8.344,0H2.655a2.655,2.655,0,1,0,0,5.31H6.448a2.655,2.655,0,1,1,0,5.31H0" transform="translate(0 3.034)" fill="none" stroke="#fff" stroke-linecap="round" stroke-linejoin="round" stroke-width="2"/>
        </g>
      </g>
      <g id="Icon_feather-dollar-sign-7" data-name="Icon feather-dollar-sign" transform="translate(106.869 93.737) rotate(-25)">
        <path id="Path_1278-7" data-name="Path 1278" d="M0,0V17.582" transform="translate(4.795 0)" fill="none" stroke="#d4af37" stroke-linecap="round" stroke-linejoin="round" stroke-width="2"/>
        <path id="Path_1279-7" data-name="Path 1279" d="M8.791,0H2.8a2.8,2.8,0,0,0,0,5.594h4a2.8,2.8,0,1,1,0,5.594H0" transform="translate(0 3.197)" fill="none" stroke="#d4af37" stroke-linecap="round" stroke-linejoin="round" stroke-width="2"/>
      </g>
      <g id="Icon_feather-dollar-sign-8" data-name="Icon feather-dollar-sign" transform="matrix(0.961, 0.276, -0.276, 0.961, 198.935, 60.14)">
        <path id="Path_1278-8" data-name="Path 1278" d="M0,0V17.582" transform="translate(4.795 0)" fill="none" stroke="#d4af37" stroke-linecap="round" stroke-linejoin="round" stroke-width="2"/>
        <path id="Path_1279-8" data-name="Path 1279" d="M8.791,0H2.8a2.8,2.8,0,0,0,0,5.594h4a2.8,2.8,0,1,1,0,5.594H0" transform="translate(0 3.197)" fill="none" stroke="#d4af37" stroke-linecap="round" stroke-linejoin="round" stroke-width="2"/>
      </g>
    </g>
  </g>
</svg>
