<svg xmlns="http://www.w3.org/2000/svg" width="46.224" height="37.542" viewBox="0 0 46.224 37.542">
  <path id="twitter" d="M41.472,12.737c.029.411.029.821.029,1.232,0,12.524-9.532,26.954-26.954,26.954A26.771,26.771,0,0,1,0,36.67a19.6,19.6,0,0,0,2.288.117A18.973,18.973,0,0,0,14.049,32.74a9.49,9.49,0,0,1-8.858-6.57,11.947,11.947,0,0,0,1.789.147,10.02,10.02,0,0,0,2.493-.323,9.475,9.475,0,0,1-7.6-9.3v-.117a9.541,9.541,0,0,0,4.282,1.2A9.488,9.488,0,0,1,3.226,5.111,26.928,26.928,0,0,0,22.76,15.025a10.694,10.694,0,0,1-.235-2.17,9.483,9.483,0,0,1,16.4-6.482,18.652,18.652,0,0,0,6.013-2.288,9.448,9.448,0,0,1-4.165,5.221,18.992,18.992,0,0,0,5.455-1.466,20.364,20.364,0,0,1-4.751,4.9Z" transform="translate(0 -3.381)" fill="#707070" opacity="0.167"/>
</svg>
