<svg xmlns="http://www.w3.org/2000/svg" width="39.88" height="53.174" viewBox="0 0 39.88 53.174">
  <path id="upload" d="M23.264,14.124V0H2.493A2.487,2.487,0,0,0,0,2.493V50.681a2.487,2.487,0,0,0,2.493,2.493h34.9a2.487,2.487,0,0,0,2.493-2.493V16.617H25.756A2.5,2.5,0,0,1,23.264,14.124Zm6.769,22.434H23.264v8.308A1.661,1.661,0,0,1,21.6,46.528H18.279a1.661,1.661,0,0,1-1.662-1.662V36.558H9.848a1.662,1.662,0,0,1-1.17-2.841l10.014-9.939a1.771,1.771,0,0,1,2.5,0L31.2,33.717A1.661,1.661,0,0,1,30.033,36.558ZM39.153,10.9,28.986.727A2.491,2.491,0,0,0,27.22,0h-.634V13.293H39.88V12.66A2.485,2.485,0,0,0,39.153,10.9Z" fill="#d4af37" opacity="0.998"/>
</svg>
