<svg width="455" height="520" viewBox="0 0 455 520" fill="none" xmlns="http://www.w3.org/2000/svg"><g id="wallet 1" clip-path="url(#clip0_383_2)"><g id="wallet"><path id="Path 193" opacity="0.4" d="M301.962 417.028C215.958 556.724 122.747 486.536 112.77 360.278C95.8325 204.936 166.744 310.642 157.475 194.538C148.206 78.4346 281.717 78.1508 321.616 139.59C361.515 201.029 376.72 276.508 301.962 417.028Z" fill="#F5F5F5"/><path id="Path 192" opacity="0.4" d="M264.064 147.949C423.642 110.008 439.906 225.535 357.682 321.846C259.813 443.639 284.428 318.77 208.884 407.402C133.339 496.034 38.7553 401.829 53.9929 330.183C69.2306 258.536 111.853 194.427 264.064 147.949Z" fill="#F5F5F5"/><path id="Path 191" opacity="0.7" d="M308.443 167.675C471.702 183.737 449.479 298.283 340.372 362.597C208.177 445.918 272.099 335.845 171.809 395.072C71.519 454.299 12.7367 334.425 50.4673 271.631C88.198 208.837 149.373 162.083 308.443 167.675Z" fill="#F5F5F5"/><path id="*" d="M89.337 205.961L91.395 205.324L89.386 199.101H95.952V196.945H89.435L91.444 190.673L89.386 189.987L87.377 196.259L82.085 192.339L80.811 194.103L86.054 197.925L80.713 201.845L81.987 203.56L87.279 199.689L89.337 205.961Z" fill="#8D8D8D"/><path id="*_2" d="M327.742 137.083L329.044 136.68L327.773 132.743H331.927V131.379H327.804L329.075 127.411L327.773 126.977L326.502 130.945L323.154 128.465L322.348 129.581L325.665 131.999L322.286 134.479L323.092 135.564L326.44 133.115L327.742 137.083Z" fill="#8D8D8D"/><path id="*_3" d="M136.671 414.444L137.973 414.041L136.702 410.104H140.856V408.74H136.733L138.004 404.772L136.702 404.338L135.431 408.306L132.083 405.826L131.277 406.942L134.594 409.36L131.215 411.84L132.021 412.925L135.369 410.476L136.671 414.444Z" fill="#8D8D8D"/><path id="*_4" d="M390.476 323.563L391.946 323.108L390.511 318.663H395.201V317.123H390.546L391.981 312.643L390.511 312.153L389.076 316.633L385.296 313.833L384.386 315.093L388.131 317.823L384.316 320.623L385.226 321.848L389.006 319.083L390.476 323.563Z" fill="#8D8D8D"/><g id="translate_1" style=" transform-origin: center; transform-box: fill-box; animation: translateY 2s linear infinite;"><path id="Path 1261" d="M295.921 293.501H181.903C179.593 293.476 177.386 292.541 175.762 290.899C174.137 289.257 173.226 287.04 173.226 284.73C173.226 282.421 174.137 280.204 175.762 278.562C177.386 276.92 179.593 275.985 181.903 275.96H295.921V293.501Z" fill="#B2B2B2"/><path id="Path 1262" d="M173.132 311.043V384.132C173.132 385.284 173.359 386.424 173.799 387.489C174.24 388.553 174.886 389.52 175.701 390.334C176.515 391.149 177.482 391.795 178.546 392.236C179.611 392.676 180.751 392.903 181.903 392.903H310.539V293.503H181.903C180.751 293.503 179.611 293.276 178.546 292.836C177.482 292.395 176.515 291.749 175.701 290.934C174.886 290.12 174.24 289.153 173.799 288.089C173.359 287.024 173.132 285.884 173.132 284.732V311.043Z" fill="#CDC7C7"/><path id="Path 1266" d="M301.768 325.66H313.462C314.23 325.66 314.99 325.811 315.7 326.105C316.409 326.399 317.054 326.829 317.597 327.372C318.14 327.915 318.57 328.56 318.864 329.269C319.158 329.979 319.309 330.739 319.309 331.507V354.895C319.309 355.663 319.158 356.423 318.864 357.133C318.57 357.842 318.14 358.487 317.597 359.03C317.054 359.573 316.409 360.003 315.7 360.297C314.99 360.591 314.23 360.742 313.462 360.742H269.612C264.96 360.742 260.498 358.894 257.208 355.604C253.919 352.315 252.071 347.853 252.071 343.201C252.071 338.548 253.919 334.086 257.208 330.797C260.498 327.507 264.96 325.659 269.612 325.659L301.768 325.66Z" fill="#B2B2B2"/><path id="Path 1267" d="M181.903 293.501H187.75V392.901H181.903V293.501Z" fill="#EEEEEE"/><path id="Ellipse 296" d="M269.609 349.049C272.838 349.049 275.456 346.431 275.456 343.202C275.456 339.973 272.838 337.355 269.609 337.355C266.38 337.355 263.762 339.973 263.762 343.202C263.762 346.431 266.38 349.049 269.609 349.049Z" fill="#EEEEEE"/></g><g id="translate_2" style=" transform-origin: center; transform-box: fill-box; animation: translateY 2s linear infinite;"><g id="Group" opacity="0.14"><path id="Ellipse 310" d="M323.265 167.374C341.125 161.224 350.618 141.761 344.468 123.902C338.319 106.042 318.855 96.5491 300.996 102.699C283.136 108.848 273.643 128.311 279.793 146.171C285.942 164.031 305.406 173.524 323.265 167.374Z" fill="#C9A42B"/><path id="Ellipse 309" d="M318.716 166.357C336.576 160.207 346.069 140.744 339.919 122.884C333.77 105.025 314.306 95.5317 296.447 101.681C278.587 107.831 269.094 127.294 275.244 145.154C281.393 163.013 300.857 172.506 318.716 166.357Z" fill="#D4AF37"/><g id="Icon feather-dollar-sign"><path id="Path 1278" d="M309.605 122.149L305.684 146.906" stroke="white" stroke-width="2" stroke-linecap="round" stroke-linejoin="round"/><path id="Path 1279" d="M314.519 127.541L306.079 126.204C305.043 126.057 303.99 126.323 303.148 126.945C302.306 127.567 301.743 128.495 301.579 129.529C301.415 130.562 301.664 131.619 302.273 132.471C302.881 133.323 303.8 133.901 304.832 134.081L310.461 134.973C310.985 135.047 311.489 135.225 311.943 135.496C312.398 135.767 312.793 136.126 313.108 136.551C313.422 136.977 313.649 137.461 313.774 137.975C313.9 138.488 313.922 139.022 313.839 139.545C313.756 140.067 313.57 140.568 313.292 141.018C313.014 141.468 312.649 141.858 312.218 142.166C311.788 142.473 311.301 142.692 310.785 142.809C310.269 142.927 309.735 142.94 309.214 142.849L299.645 141.334" stroke="white" stroke-width="2" stroke-linecap="round" stroke-linejoin="round"/></g></g><g id="3"><path id="Ellipse 310_2" d="M316.243 163.905C330.281 159.071 337.742 143.773 332.909 129.735C328.075 115.698 312.777 108.236 298.74 113.07C284.702 117.903 277.24 133.201 282.074 147.239C286.908 161.277 302.206 168.738 316.243 163.905Z" fill="#C9A42B"/><path id="Ellipse 309_2" d="M312.668 163.105C326.706 158.271 334.167 142.973 329.334 128.936C324.5 114.898 309.202 107.437 295.164 112.27C281.127 117.104 273.665 132.402 278.499 146.439C283.332 160.477 298.631 167.938 312.668 163.105Z" fill="#D4AF37"/><g id="Icon feather-dollar-sign_2"><path id="Path 1278_2" d="M305.508 128.358L302.426 147.815" stroke="white" stroke-width="2" stroke-linecap="round" stroke-linejoin="round"/><path id="Path 1279_2" d="M309.37 132.596L302.736 131.545C301.915 131.415 301.076 131.617 300.403 132.105C299.731 132.594 299.28 133.33 299.15 134.151C299.02 134.972 299.221 135.811 299.71 136.484C300.198 137.156 300.934 137.607 301.755 137.737L306.178 138.438C306.999 138.568 307.735 139.019 308.224 139.691C308.712 140.364 308.914 141.203 308.784 142.024C308.654 142.845 308.203 143.581 307.53 144.069C306.858 144.558 306.018 144.759 305.197 144.629L297.679 143.439" stroke="white" stroke-width="2" stroke-linecap="round" stroke-linejoin="round"/></g></g></g><g id="scale" style=" transform-origin: center; transform-box: fill-box; animation: pulsecust 2s linear infinite;"><g id="Group_2" opacity="0.14"><path id="Ellipse 310_3" d="M240.705 76.827C258.565 70.6774 268.058 51.2142 261.908 33.3546C255.759 15.495 236.295 6.00208 218.436 12.1516C200.576 18.3012 191.083 37.7645 197.233 55.6241C203.382 73.4837 222.846 82.9766 240.705 76.827Z" fill="#C9A42B"/><path id="Ellipse 309_3" d="M236.156 75.8096C254.016 69.66 263.509 50.1968 257.359 32.3372C251.21 14.4776 231.746 4.98468 213.887 11.1342C196.027 17.2838 186.534 36.7471 192.684 54.6067C198.833 72.4663 218.297 81.9592 236.156 75.8096Z" fill="#D4AF37"/><g id="Icon feather-dollar-sign_3"><path id="Path 1278_3" d="M227.045 31.6017L223.124 56.3591" stroke="white" stroke-width="2" stroke-linecap="round" stroke-linejoin="round"/><path id="Path 1279_3" d="M231.959 36.9938L223.519 35.6571C222.483 35.5097 221.43 35.7757 220.588 36.3977C219.746 37.0196 219.183 37.9477 219.019 38.9815C218.855 40.0154 219.104 41.0722 219.713 41.9239C220.321 42.7755 221.24 43.3538 222.272 43.5339L227.901 44.4256C228.425 44.5001 228.929 44.678 229.383 44.949C229.838 45.2201 230.233 45.5788 230.548 46.0043C230.862 46.4298 231.089 46.9136 231.214 47.4276C231.34 47.9415 231.362 48.4752 231.279 48.9977C231.196 49.5203 231.01 50.0211 230.732 50.471C230.454 50.921 230.089 51.3111 229.658 51.6187C229.228 51.9263 228.741 52.1451 228.225 52.2625C227.709 52.3799 227.175 52.3934 226.654 52.3024L217.085 50.7869" stroke="white" stroke-width="2" stroke-linecap="round" stroke-linejoin="round"/></g></g><g id="2"><path id="Ellipse 310_4" d="M240.705 86.438C258.565 80.2884 268.058 60.8252 261.908 42.9656C255.759 25.106 236.295 15.6131 218.436 21.7626C200.576 27.9122 191.083 47.3755 197.233 65.2351C203.382 83.0947 222.846 92.5876 240.705 86.438Z" fill="#C9A42B"/><path id="Ellipse 309_4" d="M236.156 85.4206C254.016 79.271 263.509 59.8078 257.359 41.9482C251.21 24.0886 231.746 14.5957 213.887 20.7452C196.027 26.8948 186.534 46.3581 192.684 64.2177C198.833 82.0773 218.297 91.5702 236.156 85.4206Z" fill="#D4AF37"/><g id="Icon feather-dollar-sign_4"><path id="Path 1278_4" d="M227.045 41.2127L223.124 65.9701" stroke="white" stroke-width="2" stroke-linecap="round" stroke-linejoin="round"/><path id="Path 1279_4" d="M231.959 46.6048L223.519 45.2681C222.483 45.1207 221.43 45.3867 220.588 46.0087C219.746 46.6306 219.183 47.5587 219.019 48.5925C218.855 49.6264 219.104 50.6832 219.713 51.5349C220.321 52.3865 221.24 52.9648 222.272 53.1449L227.901 54.0366C228.425 54.1111 228.929 54.289 229.383 54.56C229.838 54.8311 230.233 55.1898 230.548 55.6153C230.862 56.0408 231.089 56.5246 231.214 57.0386C231.34 57.5525 231.362 58.0862 231.279 58.6087C231.196 59.1312 231.01 59.6321 230.732 60.082C230.454 60.532 230.089 60.9221 229.658 61.2297C229.228 61.5373 228.741 61.7561 228.225 61.8735C227.709 61.9909 227.175 62.0044 226.654 61.9134L217.085 60.3979" stroke="white" stroke-width="2" stroke-linecap="round" stroke-linejoin="round"/></g></g></g><g id="translate_3" style=" transform-origin: center; transform-box: fill-box; animation: translateX 2s linear infinite;"><g id="11" opacity="0.14"><path id="Ellipse 310_5" d="M231.772 226.883C249.632 220.733 259.125 201.27 252.975 183.411C246.826 165.551 227.362 156.058 209.503 162.208C191.643 168.357 182.15 187.82 188.3 205.68C194.449 223.54 213.913 233.033 231.772 226.883Z" fill="#C9A42B"/><path id="Ellipse 309_5" d="M227.223 225.866C245.083 219.716 254.576 200.253 248.426 182.393C242.277 164.534 222.813 155.041 204.954 161.19C187.094 167.34 177.601 186.803 183.751 204.663C189.9 222.522 209.364 232.015 227.223 225.866Z" fill="#D4AF37"/><g id="Icon feather-dollar-sign_5"><path id="Path 1278_5" d="M218.112 181.658L214.191 206.415" stroke="white" stroke-width="2" stroke-linecap="round" stroke-linejoin="round"/><path id="Path 1279_5" d="M223.026 187.05L214.586 185.713C213.55 185.566 212.497 185.832 211.655 186.454C210.813 187.076 210.25 188.004 210.086 189.038C209.922 190.071 210.171 191.128 210.78 191.98C211.388 192.832 212.307 193.41 213.339 193.59L218.968 194.482C219.492 194.556 219.996 194.734 220.45 195.005C220.905 195.276 221.3 195.635 221.615 196.06C221.929 196.486 222.156 196.97 222.281 197.484C222.407 197.997 222.429 198.531 222.346 199.054C222.263 199.576 222.077 200.077 221.799 200.527C221.521 200.977 221.156 201.367 220.725 201.675C220.295 201.982 219.808 202.201 219.292 202.318C218.776 202.436 218.242 202.449 217.721 202.358L208.152 200.843" stroke="white" stroke-width="2" stroke-linecap="round" stroke-linejoin="round"/></g></g><g id="Group_3"><path id="Ellipse 310_6" d="M243.642 213.169C251.663 200.82 247.8 184.077 235.013 175.77C222.226 167.464 205.357 170.741 197.336 183.089C189.315 195.437 193.178 212.181 205.965 220.487C218.752 228.794 235.621 225.517 243.642 213.169Z" fill="#C9A42B"/><path id="Ellipse 309_6" d="M239.429 215.168C247.45 202.82 243.587 186.076 230.799 177.77C218.012 169.464 201.144 172.74 193.123 185.088C185.101 197.437 188.965 214.181 201.752 222.487C214.539 230.793 231.408 227.516 239.429 215.168Z" fill="#D4AF37"/><g id="Icon feather-dollar-sign_6"><path id="Path 1278_6" d="M211.104 189.099L223.26 211.034" stroke="white" stroke-width="2.00095" stroke-linecap="round" stroke-linejoin="round"/><path id="Path 1279_6" d="M218.3 190.325L210.822 194.468C209.914 194.99 209.248 195.848 208.967 196.857C208.686 197.866 208.813 198.945 209.321 199.861C209.829 200.777 210.676 201.457 211.68 201.753C212.685 202.05 213.765 201.94 214.689 201.447L219.677 198.683C220.136 198.419 220.643 198.249 221.168 198.183C221.693 198.117 222.226 198.156 222.736 198.298C223.246 198.44 223.723 198.682 224.138 199.01C224.554 199.338 224.9 199.745 225.156 200.208C225.413 200.671 225.575 201.18 225.632 201.706C225.69 202.232 225.643 202.765 225.493 203.272C225.343 203.78 225.093 204.253 224.759 204.663C224.424 205.073 224.012 205.413 223.545 205.662L215.067 210.36" stroke="white" stroke-width="2.00095" stroke-linecap="round" stroke-linejoin="round"/></g></g></g><g id="Icon feather-dollar-sign_7"><path id="Path 1278_7" d="M161.811 95.04L172.404 117.757" stroke="#D4AF37" stroke-width="2" stroke-linecap="round" stroke-linejoin="round"/><path id="Path 1279_7" d="M168.9 96.7624L161.155 100.374C160.214 100.831 159.49 101.64 159.139 102.627C158.789 103.613 158.841 104.698 159.283 105.646C159.726 106.595 160.523 107.332 161.504 107.697C162.485 108.063 163.57 108.029 164.526 107.601L169.692 105.193C170.167 104.961 170.685 104.827 171.213 104.798C171.741 104.769 172.27 104.845 172.768 105.022C173.267 105.199 173.725 105.473 174.117 105.829C174.508 106.185 174.825 106.615 175.048 107.094C175.272 107.574 175.398 108.093 175.419 108.622C175.44 109.15 175.355 109.678 175.171 110.173C174.986 110.669 174.704 111.123 174.342 111.509C173.98 111.894 173.545 112.204 173.062 112.42L164.282 116.515" stroke="#D4AF37" stroke-width="2" stroke-linecap="round" stroke-linejoin="round"/></g><g id="Icon feather-dollar-sign_8"><path id="Path 1278_8" d="M293.438 66.1747L286.52 90.2632" stroke="#D4AF37" stroke-width="1.9997" stroke-linecap="round" stroke-linejoin="round"/><path id="Path 1279_8" d="M297.655 72.1264L289.444 69.768C288.433 69.495 287.356 69.6303 286.445 70.1445C285.533 70.6588 284.86 71.5108 284.571 72.5167C284.283 73.5226 284.401 74.6018 284.9 75.5214C285.4 76.4409 286.241 77.1271 287.243 77.4319L292.72 79.0051C293.231 79.1431 293.709 79.3812 294.127 79.7058C294.544 80.0303 294.893 80.4346 295.153 80.8953C295.413 81.356 295.579 81.8638 295.641 82.3892C295.702 82.9145 295.659 83.4468 295.513 83.9552C295.367 84.4636 295.121 84.9379 294.79 85.3504C294.459 85.7629 294.049 86.1054 293.584 86.358C293.12 86.6106 292.609 86.7682 292.083 86.8216C291.557 86.875 291.025 86.8232 290.519 86.6691L281.209 83.9952" stroke="#D4AF37" stroke-width="1.9997" stroke-linecap="round" stroke-linejoin="round"/></g></g></g><defs><clipPath id="clip0_383_2"><rect width="454.592" height="519.947" fill="white"/></clipPath></defs><style> @keyframes pulsecust { 0% { transform: scale(1); } 50% { transform: scale(0.8); } 100% { transform: scale(1); } } @keyframes translateX { 0%, 100% { transform: translateX(2px); } 50% { transform: translateX(-2px); } } @keyframes translateY { 0%, 100% { transform: translateY(2px); } 50% { transform: translateY(-2px); } }</style></svg>